<?xml version="1.0" encoding="UTF-8"?>
<svg width="25px" height="25px" viewBox="0 0 25 25" version="1.1" xmlns="http://www.w3.org/2000/svg" xmlns:xlink="http://www.w3.org/1999/xlink">
    <!-- Generator: Sketch 42 (36781) - http://www.bohemiancoding.com/sketch -->
    <title>message</title>
    <desc>Created with Sketch.</desc>
    <defs></defs>
    <g id="Page-1" stroke="none" stroke-width="1" fill="none" fill-rule="evenodd">
        <g id="Full-Color" transform="translate(-50.000000, -300.000000)">
            <g id="message" transform="translate(49.000000, 300.000000)">
                <path d="M13.5,0.5 C6.873,0.5 1.5,5.425 1.5,11.5 C1.5,13.376 2.019,15.138 2.925,16.682 C3.519,17.692 3.589,18.929 3.178,20.026 L1.5,24.5 L7.395,22.143 C8.225,21.811 9.137,21.779 9.998,22.021 C11.105,22.332 12.281,22.5 13.5,22.5 C20.127,22.5 25.5,17.575 25.5,11.5 C25.5,5.425 20.127,0.5 13.5,0.5" id="Fill-2" fill="#4CD964"></path>
                <path d="M24.9472073,10.4509953 C25.0063834,9.85012176 25.8822402,9.84946412 25.9423186,10.4502481 C25.9801927,10.8289888 25.9998,11.1681703 25.9998,11.5 C25.9998,17.8615485 20.3944512,23 13.4998,23 C12.2547276,23 11.0337136,22.8310891 9.86250816,22.5023482 C9.09366879,22.2862517 8.29554279,22.3212194 7.58042744,22.6072655 L1.68542744,24.9642655 C1.28203758,25.125553 0.879039955,24.7310714 1.0316763,24.3243293 L1.9146763,21.9713293 C1.9640754,21.8396916 2.06661626,21.7349362 2.19716855,21.6827361 L7.20910466,19.6787617 C8.13171855,19.3097161 9.15543989,19.2648646 10.1329211,19.5396038 C11.2162045,19.8436662 12.346302,20 13.4998,20 C19.4688435,20 24.4175644,15.8289807 24.9472073,10.4509953 Z M2.49379388,16.9354437 C1.51859008,15.2735074 0.9998,13.4203807 0.9998,11.5 C0.9998,11.1111848 1.02130157,10.7231077 1.06377566,10.3355316 C1.12954999,9.73534081 2.00536817,9.74431093 2.05883569,10.345723 C2.18878369,11.8074009 2.6296376,13.1918749 3.35586804,14.4286616 C3.92495229,15.3969871 4.06328046,16.5674334 3.77772522,17.7038505 C3.65251307,18.2021541 2.94730744,18.2101874 2.81077639,17.7148655 C2.72808955,17.4148853 2.62583849,17.1599986 2.49379388,16.9354437 Z" id="Stroke-6" fill="#000000" fill-rule="nonzero" opacity="0.239999995"></path>
                <path d="M13.5,0.5 C6.873,0.5 1.5,5.425 1.5,11.5 C1.5,13.376 2.019,15.138 2.925,16.682 C3.519,17.692 3.589,18.929 3.178,20.026 L1.5,24.5 L7.395,22.143 C8.225,21.811 9.137,21.779 9.998,22.021 C11.105,22.332 12.281,22.5 13.5,22.5 C20.127,22.5 25.5,17.575 25.5,11.5 C25.5,5.425 20.127,0.5 13.5,0.5 Z" id="Stroke-9" stroke="#000000" stroke-linecap="round" stroke-linejoin="round"></path>
                <path d="M14.5,11.5 C14.5,12.053 14.052,12.5 13.5,12.5 C12.948,12.5 12.5,12.053 12.5,11.5 C12.5,10.947 12.948,10.5 13.5,10.5 C14.052,10.5 14.5,10.947 14.5,11.5" id="Fill-11" fill="#000000"></path>
                <path d="M14.5,11.5 C14.5,12.053 14.052,12.5 13.5,12.5 C12.948,12.5 12.5,12.053 12.5,11.5 C12.5,10.947 12.948,10.5 13.5,10.5 C14.052,10.5 14.5,10.947 14.5,11.5 Z" id="Stroke-13" stroke="#000000" stroke-linecap="round" stroke-linejoin="round"></path>
                <path d="M9.5,11.5 C9.5,12.053 9.052,12.5 8.5,12.5 C7.948,12.5 7.5,12.053 7.5,11.5 C7.5,10.947 7.948,10.5 8.5,10.5 C9.052,10.5 9.5,10.947 9.5,11.5" id="Fill-15" fill="#000000"></path>
                <path d="M9.5,11.5 C9.5,12.053 9.052,12.5 8.5,12.5 C7.948,12.5 7.5,12.053 7.5,11.5 C7.5,10.947 7.948,10.5 8.5,10.5 C9.052,10.5 9.5,10.947 9.5,11.5 Z" id="Stroke-17" stroke="#000000" stroke-linecap="round" stroke-linejoin="round"></path>
                <path d="M19.5,11.5 C19.5,12.053 19.052,12.5 18.5,12.5 C17.948,12.5 17.5,12.053 17.5,11.5 C17.5,10.947 17.948,10.5 18.5,10.5 C19.052,10.5 19.5,10.947 19.5,11.5" id="Fill-19" fill="#000000"></path>
                <path d="M19.5,11.5 C19.5,12.053 19.052,12.5 18.5,12.5 C17.948,12.5 17.5,12.053 17.5,11.5 C17.5,10.947 17.948,10.5 18.5,10.5 C19.052,10.5 19.5,10.947 19.5,11.5 Z" id="Stroke-21" stroke="#000000" stroke-linecap="round" stroke-linejoin="round"></path>
            </g>
        </g>
    </g>
</svg>