<svg id="icons" xmlns="http://www.w3.org/2000/svg" viewBox="0 0 48 48"><title>people-speech-bubbles</title><g id="people-speech-bubbles"><path d="M45,45H31V42a5,5,0,0,1,5-5h4a5,5,0,0,1,5,5Z" fill="#e8e8e8"/><ellipse cx="38" cy="33" rx="3.5" ry="4" fill="#fff"/><path d="M31,45H17V42a5,5,0,0,1,5-5h4a5,5,0,0,1,5,5Z" fill="#e8e8e8"/><ellipse cx="24" cy="33" rx="3.5" ry="4" fill="#fff"/><path d="M17,45H3V42a5,5,0,0,1,5-5h4a5,5,0,0,1,5,5Z" fill="#e8e8e8"/><ellipse cx="10" cy="33" rx="3.5" ry="4" fill="#fff"/><path d="M45,45H31V42a5,5,0,0,1,5-5h4a5,5,0,0,1,5,5Z" fill="none" stroke="#423e5e" stroke-linecap="round" stroke-linejoin="round" stroke-width="2"/><ellipse cx="38" cy="33" rx="3.5" ry="4" fill="none" stroke="#423e5e" stroke-linecap="round" stroke-linejoin="round" stroke-width="2"/><path d="M31,45H17V42a5,5,0,0,1,5-5h4a5,5,0,0,1,5,5Z" fill="none" stroke="#423e5e" stroke-linecap="round" stroke-linejoin="round" stroke-width="2"/><ellipse cx="24" cy="33" rx="3.5" ry="4" fill="none" stroke="#423e5e" stroke-linecap="round" stroke-linejoin="round" stroke-width="2"/><path d="M17,45H3V42a5,5,0,0,1,5-5h4a5,5,0,0,1,5,5Z" fill="none" stroke="#423e5e" stroke-linecap="round" stroke-linejoin="round" stroke-width="2"/><ellipse cx="10" cy="33" rx="3.5" ry="4" fill="none" stroke="#423e5e" stroke-linecap="round" stroke-linejoin="round" stroke-width="2"/><polygon points="36 3 36 15 27 15 24 19 21 15 12 15 12 3 36 3" fill="#fff"/><polygon points="30 7 30 19 38 19 38 23 43 19 46 19 46 7 30 7" fill="#60deae"/><polygon points="18 9 18 21 10 21 10 25 5 21 2 21 2 9 18 9" fill="#ffd259"/><rect x="30" y="7" width="6" height="8" fill="#60deae"/><rect x="12" y="9" width="6" height="6" fill="#ffd259"/><polyline points="34 7 30 7 30 13" fill="none" stroke="#423e5e" stroke-linejoin="round" stroke-width="2"/><polyline points="30 15 30 19 38 19 38 23 43 19 46 19 46 7 36 7" fill="none" stroke="#423e5e" stroke-linecap="round" stroke-linejoin="round" stroke-width="2"/><polyline points="14 9 18 9 18 13" fill="none" stroke="#423e5e" stroke-linejoin="round" stroke-width="2"/><polyline points="18 15 18 21 10 21 10 25 5 21 2 21 2 9 12 9" fill="none" stroke="#423e5e" stroke-linecap="round" stroke-linejoin="round" stroke-width="2"/><polygon points="36 3 36 15 27 15 24 19 21 15 12 15 12 3 36 3" fill="none" stroke="#423e5e" stroke-linecap="round" stroke-linejoin="round" stroke-width="2"/></g></svg>